<svg width="23" height="23" viewBox="0 0 23 23" fill="none" xmlns="http://www.w3.org/2000/svg">
<g id="SVG">
<path id="Vector" fill-rule="evenodd" clip-rule="evenodd" d="M9.26795 4.9138C9.19277 4.9138 9.11907 4.93472 9.0551 4.97422C8.99113 5.01372 8.93941 5.07024 8.90573 5.13745L8.20721 6.53449H4.71544C4.39306 6.53449 4.08389 6.66255 3.85594 6.89051C3.62798 7.11846 3.49992 7.42763 3.49992 7.75001V15.8535C3.49992 16.1758 3.62798 16.485 3.85594 16.713C4.08389 16.9409 4.39306 17.069 4.71544 17.069H17.681C18.0033 17.069 18.3125 16.9409 18.5405 16.713C18.7684 16.485 18.8965 16.1758 18.8965 15.8535V7.75001C18.8965 7.42763 18.7684 7.11846 18.5405 6.89051C18.3125 6.66255 18.0033 6.53449 17.681 6.53449H14.1892L13.4907 5.13745C13.457 5.07024 13.4053 5.01372 13.3413 4.97422C13.2773 4.93472 13.2036 4.9138 13.1284 4.9138H9.26795ZM8.18047 4.77604C8.28135 4.57397 8.43654 4.404 8.62863 4.2852C8.82071 4.1664 9.0421 4.10346 9.26795 4.10345H13.1284C13.3543 4.10346 13.5757 4.1664 13.7678 4.2852C13.9599 4.404 14.115 4.57397 14.2159 4.77604L14.69 5.72414H17.681C17.947 5.72414 18.2104 5.77654 18.4562 5.87835C18.702 5.98016 18.9253 6.12939 19.1135 6.31751C19.3016 6.50562 19.4508 6.72895 19.5526 6.97474C19.6544 7.22053 19.7068 7.48397 19.7068 7.75001V15.8535C19.7068 16.1195 19.6544 16.3829 19.5526 16.6287C19.4508 16.8745 19.3016 17.0978 19.1135 17.286C18.9253 17.4741 18.702 17.6233 18.4562 17.7251C18.2104 17.8269 17.947 17.8793 17.681 17.8793H4.71544C4.17815 17.8793 3.66286 17.6659 3.28294 17.286C2.90301 16.906 2.68958 16.3907 2.68958 15.8535V7.75001C2.68958 7.21271 2.90301 6.69743 3.28294 6.31751C3.66286 5.93758 4.17815 5.72414 4.71544 5.72414H7.70642L8.18047 4.77604Z" fill="#6F6E84"/>
<path id="Vector_2" fill-rule="evenodd" clip-rule="evenodd" d="M11.1982 14.6379C11.5706 14.6379 11.9395 14.5645 12.2836 14.422C12.6277 14.2795 12.9403 14.0706 13.2037 13.8072C13.4671 13.5438 13.676 13.2312 13.8185 12.8871C13.961 12.543 14.0344 12.1742 14.0344 11.8017C14.0344 11.4292 13.961 11.0604 13.8185 10.7163C13.676 10.3722 13.4671 10.0596 13.2037 9.7962C12.9403 9.53284 12.6277 9.32392 12.2836 9.18139C11.9395 9.03886 11.5706 8.9655 11.1982 8.9655C10.446 8.9655 9.72458 9.26431 9.19269 9.7962C8.66079 10.3281 8.36198 11.0495 8.36198 11.8017C8.36198 12.5539 8.66079 13.2753 9.19269 13.8072C9.72458 14.3391 10.446 14.6379 11.1982 14.6379ZM11.1982 15.4483C12.1653 15.4483 13.0928 15.0641 13.7767 14.3802C14.4605 13.6963 14.8447 12.7688 14.8447 11.8017C14.8447 10.8346 14.4605 9.90706 13.7767 9.2232C13.0928 8.53934 12.1653 8.15515 11.1982 8.15515C10.2311 8.15515 9.30355 8.53934 8.61969 9.2232C7.93583 9.90706 7.55164 10.8346 7.55164 11.8017C7.55164 12.7688 7.93583 13.6963 8.61969 14.3802C9.30355 15.0641 10.2311 15.4483 11.1982 15.4483Z" fill="#6F6E84"/>
</g>
</svg>
