<svg width="22" height="17" viewBox="0 0 22 17" fill="none" xmlns="http://www.w3.org/2000/svg">
<path d="M15.8103 3.53269L14.5332 1.51058C14.264 1.19615 13.8951 1 13.4815 1H9.06765C8.65409 1 8.28514 1.19615 8.01599 1.51058L6.73885 3.53269C6.4697 3.8476 6.12283 4.07692 5.70927 4.07692H2.83067C2.42349 4.07692 2.03299 4.23901 1.74508 4.52753C1.45716 4.81605 1.29541 5.20736 1.29541 5.61538V14.8462C1.29541 15.2542 1.45716 15.6455 1.74508 15.934C2.03299 16.2225 2.42349 16.3846 2.83067 16.3846H19.7185C20.1257 16.3846 20.5162 16.2225 20.8041 15.934C21.092 15.6455 21.2537 15.2542 21.2537 14.8462V5.61538C21.2537 5.20736 21.092 4.81605 20.8041 4.52753C20.5162 4.23901 20.1257 4.07692 19.7185 4.07692H16.8879C16.4729 4.07692 16.0794 3.8476 15.8103 3.53269Z" stroke="#9699BC" stroke-linecap="round" stroke-linejoin="round"/>
<path d="M11.2742 13.3075C13.3941 13.3075 15.1126 11.5856 15.1126 9.46139C15.1126 7.33722 13.3941 5.61523 11.2742 5.61523C9.1543 5.61523 7.43579 7.33722 7.43579 9.46139C7.43579 11.5856 9.1543 13.3075 11.2742 13.3075Z" stroke="#9699BC" stroke-miterlimit="10"/>
</svg>
