<svg width="11" height="18" viewBox="0 0 11 18" fill="none" xmlns="http://www.w3.org/2000/svg">
<path d="M0.196331 11.8137L4.88879 17.2222C4.96443 17.3093 5.05825 17.3793 5.16383 17.4272C5.26941 17.4752 5.38424 17.5 5.50044 17.5C5.61665 17.5 5.73148 17.4752 5.83705 17.4272C5.94263 17.3793 6.03646 17.3093 6.11209 17.2222L10.8046 11.8137C11.2524 11.2974 10.8811 10.5 10.1929 10.5H0.80664C0.118448 10.5 -0.252839 11.2974 0.196331 11.8137Z" fill="#8993A4"/>
<path d="M0.196331 5.374L4.88879 0.738118C4.96443 0.663434 5.05825 0.603484 5.16383 0.562382C5.26941 0.521281 5.38424 0.5 5.50044 0.5C5.61665 0.5 5.73148 0.521281 5.83705 0.562382C5.94263 0.603484 6.03646 0.663434 6.11209 0.738118L10.8046 5.374C11.2524 5.8165 10.8811 6.5 10.1929 6.5H0.80664C0.118448 6.5 -0.252839 5.8165 0.196331 5.374Z" fill="#8993A4"/>
</svg>
