<svg xmlns="http://www.w3.org/2000/svg" width="20" height="20" viewBox="0 0 20 20" fill="none">
<path fill-rule="evenodd" clip-rule="evenodd" d="M16.9721 0H13.1703C12.7204 0 12.3556 0.365482 12.3556 0.816326C12.3556 1.26717 12.7204 1.63265 13.1703 1.63265H16.9721C17.722 1.63265 18.3299 2.24179 18.3299 2.9932V6.80272C18.3299 7.25357 18.6947 7.61905 19.1446 7.61905C19.5945 7.61905 19.9593 7.25357 19.9593 6.80272V2.9932C19.9593 1.3401 18.6219 0 16.9721 0ZM2.98716 18.3671H6.78899C7.23893 18.3671 7.60367 18.7326 7.60367 19.1834C7.60367 19.6343 7.23893 19.9998 6.78899 19.9998H2.98716C1.3374 19.9998 0 18.6597 0 17.0066V13.197C0 12.9054 0.155277 12.6359 0.407339 12.4901C0.659402 12.3443 0.969956 12.3443 1.22202 12.4901C1.47408 12.6359 1.62936 12.9054 1.62936 13.197V17.0066C1.62936 17.758 2.23726 18.3671 2.98716 18.3671ZM18.3299 13.1982C18.3299 12.7467 18.6947 12.3807 19.1446 12.3807C19.5903 12.3807 19.9533 12.7401 19.9593 13.1873V17.0023C19.9593 18.6578 18.6219 19.9998 16.9721 19.9998H13.1703C12.7204 19.9998 12.3556 19.6338 12.3556 19.1823C12.3556 18.7308 12.7204 18.3648 13.1703 18.3648H16.9721C17.722 18.3648 18.3299 17.7548 18.3299 17.0023V13.1982ZM2.98716 0H6.78899C7.23893 0 7.60367 0.365482 7.60367 0.816326C7.60367 1.26717 7.23893 1.63265 6.78899 1.63265H2.98716C2.23726 1.63265 1.62936 2.24179 1.62936 2.9932V6.80272C1.62936 7.25357 1.26461 7.61905 0.814679 7.61905C0.364744 7.61905 0 7.25357 0 6.80272V2.9932C0 1.3401 1.3374 0 2.98716 0Z" fill="#9699BC"/>
</svg>