<svg width="24" height="23" viewBox="0 0 24 23" fill="none" xmlns="http://www.w3.org/2000/svg">
<g id="SVG">
<g id="Group">
<path id="Vector" d="M17.672 5.7241V8.96548H18.4824V4.91376H14.4307V5.7241H17.672Z" fill="#6F6E84"/>
<path id="Vector_2" d="M14.312 9.65752L18.3637 5.60579L17.79 5.03207L13.7382 9.08379L14.312 9.65752ZM6.32682 5.7241V8.96548H5.51648V4.91376H9.5682V5.7241H6.32682Z" fill="#6F6E84"/>
<path id="Vector_3" d="M9.68722 9.65749L5.6355 5.60577L6.20922 5.03204L10.2609 9.08377L9.68722 9.65749ZM17.6724 17.0689V13.8275H18.4827V17.8793H14.431V17.0689H17.6724Z" fill="#6F6E84"/>
<path id="Vector_4" d="M14.3127 13.1355L18.3645 17.1872L17.7907 17.7609L13.739 13.7092L14.3127 13.1355Z" fill="#6F6E84"/>
<g id="Group_2">
<path id="Vector_5" d="M6.32682 17.0689V13.8275H5.51648V17.8792H9.5682V17.0689H6.32682Z" fill="#6F6E84"/>
<path id="Vector_6" d="M9.68734 13.1355L5.63562 17.1872L6.20934 17.7609L10.2611 13.7092L9.68734 13.1355Z" fill="#6F6E84"/>
</g>
</g>
</g>
</svg>
