<svg width="14" height="13" viewBox="0 0 14 13" fill="#ffb846" stroke="#6f6e84" xmlns="http://www.w3.org/2000/svg"><path d="M6.76114 0.772952C6.83374 0.538033 7.16626 0.538034 7.23886 0.772953L8.36196 4.4074C8.39433 4.51215 8.49118 4.58359 8.60082 4.58359H12.2609C12.5001 4.58359 12.6027 4.88709 12.4127 5.03226L9.43037 7.31055C9.34712 7.37415 9.31235 7.48292 9.34328 7.58302L10.4773 11.2527C10.5491 11.4853 10.2801 11.6729 10.0867 11.5252L7.15177 9.28312C7.06217 9.21467 6.93784 9.21467 6.84823 9.28312L3.91334 11.5252C3.71992 11.6729 3.45086 11.4853 3.52272 11.2527L4.65672 7.58302C4.68765 7.48292 4.65288 7.37415 4.56963 7.31055L1.58731 5.03226C1.39728 4.88709 1.49994 4.58359 1.73907 4.58359H5.39918C5.50882 4.58359 5.60567 4.51215 5.63804 4.4074L6.76114 0.772952Z"></path></svg>