<svg xmlns="http://www.w3.org/2000/svg" width="38" height="37" viewBox="0 0 38 37" fill="none">
<path d="M19 0.166664C8.87996 0.166664 0.666626 8.38 0.666626 18.5C0.666626 28.62 8.87996 36.8333 19 36.8333C29.12 36.8333 37.3333 28.62 37.3333 18.5C37.3333 8.38 29.12 0.166664 19 0.166664ZM25.4716 18.555C25.1966 18.83 24.8483 18.9583 24.5 18.9583C24.1516 18.9583 23.8033 18.83 23.5283 18.555L20.375 15.4017V24.9167C20.375 25.6683 19.7516 26.2917 19 26.2917C18.2483 26.2917 17.625 25.6683 17.625 24.9167V15.4017L14.4716 18.555C13.94 19.0867 13.06 19.0867 12.5283 18.555C11.9966 18.0233 11.9966 17.1433 12.5283 16.6117L18.0283 11.1117C18.56 10.58 19.44 10.58 19.9716 11.1117L25.4716 16.6117C26.0033 17.1433 26.0033 18.0233 25.4716 18.555Z" fill="#9699BC"/>
</svg>