<svg width="21" height="20" viewBox="0 0 21 20" fill="none" xmlns="http://www.w3.org/2000/svg">
<g id="Group 3">
<path id="Vector" fill-rule="evenodd" clip-rule="evenodd" d="M13.3 5.2H14.1C14.7365 5.2 15.347 5.45286 15.7971 5.90294C16.2471 6.35303 16.5 6.96348 16.5 7.6V14C16.5 14.6365 16.2471 15.247 15.7971 15.6971C15.347 16.1471 14.7365 16.4 14.1 16.4H2.9C2.26348 16.4 1.65303 16.1471 1.20294 15.6971C0.752856 15.247 0.5 14.6365 0.5 14L0.5 4.4C0.5 3.76348 0.752856 3.15303 1.20294 2.70294C1.65303 2.25286 2.26348 2 2.9 2H10.9C11.5365 2 12.147 2.25286 12.5971 2.70294C13.0471 3.15303 13.3 3.76348 13.3 4.4V5.2ZM10.9 3.6H2.9C2.68783 3.6 2.48434 3.68429 2.33431 3.83431C2.18429 3.98434 2.1 4.18783 2.1 4.4C2.1 4.61217 2.18429 4.81566 2.33431 4.96569C2.48434 5.11571 2.68783 5.2 2.9 5.2H11.7V4.4C11.7 4.18783 11.6157 3.98434 11.4657 3.83431C11.3157 3.68429 11.1122 3.6 10.9 3.6ZM14.9 11.6H14.1C13.8878 11.6 13.6843 11.5157 13.5343 11.3657C13.3843 11.2157 13.3 11.0122 13.3 10.8C13.3 10.5878 13.3843 10.3843 13.5343 10.2343C13.6843 10.0843 13.8878 10 14.1 10H14.9V11.6ZM14.1 8.4H14.9V7.6C14.9 7.38783 14.8157 7.18434 14.6657 7.03431C14.5157 6.88429 14.3122 6.8 14.1 6.8H2.9C2.62755 6.8004 2.35701 6.75441 2.1 6.664V14C2.1 14.2122 2.18429 14.4157 2.33431 14.5657C2.48434 14.7157 2.68783 14.8 2.9 14.8H14.1C14.3122 14.8 14.5157 14.7157 14.6657 14.5657C14.8157 14.4157 14.9 14.2122 14.9 14V13.2H14.1C13.4635 13.2 12.853 12.9471 12.4029 12.4971C11.9529 12.047 11.7 11.4365 11.7 10.8C11.7 10.1635 11.9529 9.55303 12.4029 9.10294C12.853 8.65286 13.4635 8.4 14.1 8.4Z" fill="white"/>
</g>
</svg>
