<svg width="160" height="35" viewBox="0 0 160 35" fill="none" xmlns="http://www.w3.org/2000/svg">
<g id="Logo/ Kalypso 1">
<path id="Kalypso" fill-rule="evenodd" clip-rule="evenodd" d="M80.3307 26.7799V2.38H75.7648V26.7799H80.3307ZM131.623 27.2294C128.557 27.2294 126.129 26.1057 124.337 23.8584L126.765 21.001C127.391 21.7501 128.136 22.3494 129 22.7989C129.885 23.227 130.77 23.441 131.655 23.441C132.346 23.441 132.918 23.2805 133.371 22.9594C133.846 22.6384 134.084 22.2317 134.084 21.7394C134.084 21.1187 133.663 20.6157 132.821 20.2305C132.562 20.1235 131.86 19.8559 130.716 19.4278C129.701 19.064 128.946 18.7536 128.449 18.4968C126.42 17.5336 125.405 16.0247 125.405 13.97C125.405 12.4503 126.01 11.1875 127.219 10.1816C128.406 9.197 130.004 8.70472 132.011 8.70472C134.515 8.70472 136.577 9.53945 138.196 11.2089L135.929 14.1305C134.699 12.9747 133.35 12.3968 131.882 12.3968C131.299 12.3968 130.813 12.5466 130.425 12.8463C130.058 13.1245 129.874 13.467 129.874 13.8736C129.874 14.6014 130.392 15.1365 131.428 15.4789C133.738 16.335 135.152 16.9022 135.67 17.1805C137.656 18.2078 138.65 19.6847 138.65 21.611C138.65 23.2591 138.002 24.6075 136.707 25.6562C135.455 26.705 133.76 27.2294 131.623 27.2294ZM140.791 18.0152C140.791 15.4254 141.676 13.2529 143.447 11.4979C145.238 9.69997 147.505 8.80103 150.247 8.80103C152.988 8.80103 155.255 9.69997 157.047 11.4979C158.817 13.2529 159.702 15.4254 159.702 18.0152C159.702 20.6264 158.817 22.8096 157.047 24.5647C155.255 26.3412 152.988 27.2294 150.247 27.2294C147.505 27.2294 145.238 26.3412 143.447 24.5647C141.676 22.8096 140.791 20.6264 140.791 18.0152ZM146.75 21.5789C147.678 22.542 148.844 23.0236 150.247 23.0236C151.607 23.0236 152.762 22.542 153.712 21.5789C154.662 20.5729 155.136 19.385 155.136 18.0152C155.136 16.6454 154.662 15.4682 153.712 14.4836C152.762 13.5205 151.607 13.0389 150.247 13.0389C148.844 13.0389 147.678 13.5205 146.75 14.4836C145.821 15.4254 145.357 16.6026 145.357 18.0152C145.357 19.4064 145.821 20.5943 146.75 21.5789ZM120.167 11.4979C118.505 9.72137 116.433 8.83312 113.95 8.83312C111.726 8.83312 109.859 9.69996 108.348 11.4336V9.2826H103.814V33.9715H108.38V24.7573C109.891 26.3839 111.737 27.1973 113.918 27.1973C116.4 27.1973 118.473 26.309 120.135 24.5325C121.797 22.7561 122.628 20.5836 122.628 18.0152C122.628 15.4254 121.808 13.2529 120.167 11.4979ZM116.67 21.611C115.763 22.5741 114.587 23.0557 113.14 23.0557C111.716 23.0557 110.55 22.5741 109.643 21.611C108.736 20.6478 108.283 19.4599 108.283 18.0473C108.283 16.6347 108.736 15.4468 109.643 14.4836C110.55 13.5205 111.716 13.0389 113.14 13.0389C114.587 13.0389 115.763 13.5205 116.67 14.4836C117.577 15.4468 118.03 16.6347 118.03 18.0473C118.03 19.4599 117.577 20.6478 116.67 21.611ZM92.4603 20.68L96.4756 9.28262H101.462L94.3708 27.6468C93.5073 29.8941 92.4711 31.5529 91.2621 32.6231C90.0748 33.6932 88.6176 34.2283 86.8906 34.2283C85.5521 34.2283 84.4188 33.9394 83.4905 33.3615L84.2676 29.5731C85.0664 29.9583 85.822 30.151 86.5344 30.151C87.9376 30.151 89.0818 29.2306 89.9669 27.3899L90.3231 26.5873L82.6162 9.28262H87.8944L92.4603 20.68ZM67.3202 11.3694V9.2826H71.6594V26.7799H67.3202V24.7573C65.8091 26.384 63.9309 27.1973 61.6858 27.1973C59.1384 27.1973 57.0443 26.3197 55.4037 24.5647C53.763 22.8096 52.9426 20.605 52.9426 17.951C52.9426 15.3184 53.7738 13.1459 55.436 11.4336C57.0983 9.69996 59.1816 8.83312 61.6858 8.83312C63.8877 8.83312 65.7659 9.67856 67.3202 11.3694ZM67.385 18.0152C67.385 16.6454 66.91 15.4575 65.9602 14.4515C65.0319 13.467 63.8553 12.9747 62.4305 12.9747C60.9841 12.9747 59.7968 13.467 58.8685 14.4515C57.9618 15.4361 57.5085 16.624 57.5085 18.0152C57.5085 19.4278 57.9726 20.6264 58.9009 21.611C59.8292 22.5955 61.0057 23.0878 62.4305 23.0878C63.8553 23.0878 65.0319 22.5955 65.9602 21.611C66.91 20.605 67.385 19.4064 67.385 18.0152ZM47.5599 26.7799H53.4534L44.0626 13.8416L52.8381 3.05422H47.0418L37.9748 14.2589V3.05422H33.1823V26.7799H37.9748V20.8726L40.9216 17.3731L47.5599 26.7799Z" fill="#313537"/>
<g id="sktech">
<path id="Vector" d="M15.6689 0.938512C15.6627 4.93758 14.0572 8.77102 11.2043 11.5981C8.35153 14.4253 4.48432 16.0153 0.450775 16.0196V23.5276C3.44486 23.5353 6.41078 22.9544 9.17695 21.8183C11.9431 20.6823 14.4546 19.0138 16.5662 16.9092L16.5897 16.8882C18.7056 14.7953 20.3828 12.3078 21.5244 9.56911C22.6661 6.83046 23.2497 3.89485 23.2416 0.931519L15.6689 0.938512Z" fill="#3840C7"/>
<path id="Vector_2" d="M18.1023 18.551C16.2975 20.3335 14.2295 21.8333 11.9695 22.9989C14.3576 25.7344 15.671 29.2318 15.6689 32.8496H23.2416C23.2574 27.636 21.4401 22.5799 18.1023 18.551Z" fill="#2DB8E3"/>
</g>
</g>
</svg>
